<svg width="93" height="90" viewBox="0 0 93 90" fill="none" xmlns="http://www.w3.org/2000/svg">
<path opacity="0.15" d="M24.2188 85.3125C24.2188 86.0584 26.5662 86.7738 30.7448 87.3012C34.9233 87.8287 40.5906 88.125 46.5 88.125C52.4094 88.125 58.0767 87.8287 62.2552 87.3012C66.4338 86.7738 68.7812 86.0584 68.7812 85.3125C68.7812 84.5666 66.4338 83.8512 62.2552 83.3238C58.0767 82.7963 52.4094 82.5 46.5 82.5C40.5906 82.5 34.9233 82.7963 30.7448 83.3238C26.5662 83.8512 24.2188 84.5666 24.2188 85.3125Z" fill="#45413C"/>
<path d="M78.7205 21.3563C68.7033 16.5582 57.677 14.062 46.4999 14.062C35.3229 14.062 24.2965 16.5582 14.2793 21.3563L18.658 30C21.0445 34.6629 22.2845 39.7966 22.2812 45V53.325C22.258 54.2373 22.5677 55.1282 23.1559 55.8415C23.7441 56.5547 24.5731 57.0445 25.4974 57.225C26.0586 57.3187 26.6341 57.2917 27.1832 57.1457C27.7323 56.9997 28.2414 56.7383 28.6742 56.3803C29.1071 56.0223 29.4531 55.5763 29.6877 55.0742C29.9222 54.572 30.0395 54.026 30.0312 53.475V52.2L44.7755 81C44.9381 81.3071 45.1852 81.5649 45.4894 81.7449C45.7937 81.9248 46.1433 82.0201 46.4999 82.0201C46.8565 82.0201 47.2062 81.9248 47.5104 81.7449C47.8147 81.5649 48.0617 81.3071 48.2243 81L53.2812 71.1188V75C53.2812 75.7459 53.5874 76.4613 54.1324 76.9888C54.6774 77.5162 55.4166 77.8125 56.1874 77.8125C56.9582 77.8125 57.6974 77.5162 58.2424 76.9888C58.7875 76.4613 59.0937 75.7459 59.0937 75V64.125C59.0643 61.2482 59.7276 58.4044 61.0312 55.8188C63.4724 51.0188 66.088 45.9375 68.7812 40.8188V45.9375C68.7812 46.6834 69.0874 47.3988 69.6324 47.9262C70.1774 48.4537 70.9166 48.75 71.6874 48.75C72.4582 48.75 73.1974 48.4537 73.7424 47.9262C74.2875 47.3988 74.5937 46.6834 74.5937 45.9375V33.75C74.5732 30.8681 75.236 28.0201 76.5312 25.425L78.7205 21.3563Z" fill="#FFE500"/>
<path d="M46.4999 20.1563C56.7547 20.154 66.8927 22.2631 76.2405 26.3438C76.3568 26.0625 76.473 25.7625 76.6087 25.5L78.7205 21.3563C68.7033 16.5582 57.677 14.062 46.4999 14.062C35.3229 14.062 24.2965 16.5582 14.2793 21.3563L16.8174 26.25C26.1549 22.21 36.2718 20.133 46.4999 20.1563Z" fill="#EBCB00"/>
<path d="M59.0936 42.1875C56.7813 42.1875 54.5636 43.0764 52.9286 44.6588C51.2935 46.2411 50.3749 48.3872 50.3749 50.625C50.3749 52.8628 51.2935 55.0089 52.9286 56.5912C54.5636 58.1735 56.7813 59.0625 59.0936 59.0625H59.4618C61.6124 54.8812 63.8986 50.4 66.2236 45.825C65.4289 44.7048 64.3646 43.7883 63.1225 43.1546C61.8804 42.521 60.4978 42.1891 59.0936 42.1875ZM45.5311 61.875C45.5337 60.7663 45.3099 59.668 44.8727 58.6432C44.4354 57.6184 43.7933 56.6873 42.9832 55.9033C42.1731 55.1193 41.2109 54.4979 40.1519 54.0747C39.093 53.6516 37.9581 53.435 36.8124 53.4375C34.9112 53.4413 33.0648 54.0545 31.5618 55.1813L39.1374 69.975C40.9717 69.4871 42.5901 68.4308 43.7449 66.9678C44.8997 65.5049 45.5271 63.7159 45.5311 61.875ZM50.3749 27.1875C50.3749 29.4253 51.2935 31.5714 52.9286 33.1537C54.5636 34.7361 56.7813 35.625 59.0936 35.625C61.406 35.625 63.6236 34.7361 65.2587 33.1537C66.8938 31.5714 67.8124 29.4253 67.8124 27.1875C67.8124 24.9497 66.8938 22.8036 65.2587 21.2213C63.6236 19.6389 61.406 18.75 59.0936 18.75C56.7813 18.75 54.5636 19.6389 52.9286 21.2213C51.2935 22.8036 50.3749 24.9497 50.3749 27.1875Z" fill="#FF6242" stroke="#45413C" stroke-width="4.16667" stroke-linecap="round" stroke-linejoin="round"/>
<path d="M46.5001 14.0625C57.6789 14.0474 68.7087 16.5442 78.7207 21.3562C78.7207 21.3562 83.5063 21.9375 84.2813 17.8125C86.2188 7.5 54.5794 4.6875 46.5001 4.6875C38.4207 4.6875 6.78132 7.5 8.71882 17.8125C9.49382 21.9375 14.2794 21.3562 14.2794 21.3562C24.2915 16.5442 35.3213 14.0474 46.5001 14.0625Z" fill="#F0D5A8"/>
<path d="M8.79628 18.1125C15.8488 11.3813 39.525 9.375 46.5 9.375C53.475 9.375 77.1513 11.3813 84.2038 18.1125V17.8125C86.1413 7.5 54.5019 4.6875 46.4225 4.6875C38.3431 4.6875 6.78128 7.5 8.71878 17.8125C8.73815 17.925 8.7769 18 8.79628 18.1125Z" fill="#F7E5C6"/>
<path d="M46.5001 14.0625C57.6789 14.0474 68.7087 16.5442 78.7207 21.3562C78.7207 21.3562 83.5063 21.9375 84.2813 17.8125C86.2188 7.5 54.5794 4.6875 46.5001 4.6875C38.4207 4.6875 6.78132 7.5 8.71882 17.8125C9.49382 21.9375 14.2794 21.3562 14.2794 21.3562C24.2915 16.5442 35.3213 14.0474 46.5001 14.0625Z" stroke="#45413C" stroke-width="4.16667" stroke-linecap="round" stroke-linejoin="round"/>
<path d="M24.2188 31.875C24.2188 34.1128 25.1373 36.2589 26.7724 37.8412C28.4075 39.4236 30.6251 40.3125 32.9375 40.3125C35.2499 40.3125 37.4675 39.4236 39.1026 37.8412C40.7377 36.2589 41.6562 34.1128 41.6562 31.875C41.6562 29.6372 40.7377 27.4911 39.1026 25.9088C37.4675 24.3264 35.2499 23.4375 32.9375 23.4375C30.6251 23.4375 28.4075 24.3264 26.7724 25.9088C25.1373 27.4911 24.2188 29.6372 24.2188 31.875Z" fill="#FF6242" stroke="#45413C" stroke-width="4.16667" stroke-linecap="round" stroke-linejoin="round"/>
<path d="M30.0312 52.1625V47.8125M53.2812 71.1188L48.2243 81C48.0617 81.3071 47.8147 81.5649 47.5104 81.7449C47.2062 81.9248 46.8565 82.0201 46.4999 82.0201C46.1433 82.0201 45.7937 81.9248 45.4894 81.7449C45.1852 81.5649 44.9381 81.3071 44.7755 81L30.0312 52.2V53.475C30.0395 54.026 29.9222 54.572 29.6877 55.0742C29.4531 55.5763 29.1071 56.0223 28.6742 56.3803C28.2414 56.7383 27.7323 56.9997 27.1832 57.1457C26.6341 57.2917 26.0586 57.3187 25.4974 57.225C24.5731 57.0445 23.7441 56.5547 23.1559 55.8415C22.5677 55.1282 22.258 54.2373 22.2812 53.325V45C22.2845 39.7966 21.0445 34.6629 18.658 30L14.2793 21.3563C24.2965 16.5582 35.3229 14.062 46.4999 14.062C57.677 14.062 68.7033 16.5582 78.7205 21.3563L76.5312 25.425C75.236 28.0201 74.5732 30.8681 74.5937 33.75V45.9375C74.5937 46.6834 74.2875 47.3988 73.7424 47.9262C73.1974 48.4537 72.4582 48.75 71.6874 48.75C70.9166 48.75 70.1774 48.4537 69.6324 47.9262C69.0874 47.3988 68.7812 46.6834 68.7812 45.9375V40.8188C66.088 45.9375 63.4724 51.0188 61.0312 55.8188C59.7276 58.4044 59.0643 61.2482 59.0937 64.125V75C59.0937 75.7459 58.7875 76.4613 58.2424 76.9888C57.6974 77.5162 56.9582 77.8125 56.1874 77.8125C55.4166 77.8125 54.6774 77.5162 54.1324 76.9888C53.5874 76.4613 53.2812 75.7459 53.2812 75V71.1188ZM53.2812 71.1188V66.5625M68.7812 37.5V40.8" stroke="#45413C" stroke-width="4.16667" stroke-linecap="round" stroke-linejoin="round"/>
</svg>
